Source: Black.Death.2010.720p.BluRay.x264-WiKi

Subs: Albanian, Arabic, Brazilian, Croatian, Danish, Dutch, English, Finnish, French, Greek, Hungarian, Indonesian, Italian, Norwegian, Portuguese, Romanian, Servian, Slovenian, Spanish,Swedish and Vietnamese.

Sample and Screens included.

General
Complete name                    : Black Death-720p MP4 AAC x264 BRRip 2010-CC.mp4
Format                           : MPEG-4
Format profile                   : Base Media
Codec ID                         : isom
File size                        : 1.85 GiB
Duration                         : 1h 41mn
Overall bit rate                 : 2 611 Kbps
Encoded date                     : UTC 2012-03-31 09:47:24

Video
ID                               : 1
Format                           : AVC
Format/Info                      : Advanced Video Codec
Format profile                   : High@L3.1
Format settings, CABAC           : Yes
Format settings, ReFrames        : 5 frames
Codec ID                         : avc1
Codec ID/Info                    : Advanced Video Coding
Duration                         : 1h 41mn
Bit rate mode                    : Variable
Bit rate                         : 2 223 Kbps
Nominal bit rate                 : 2 326 Kbps
Maximum bit rate                 : 36.1 Mbps
Width                            : 1 280 pixels
Height                           : 528 pixels
Display aspect ratio             : 2.40:1
Frame rate mode                  : Variable
Frame rate                       : 24.000 fps
Minimum frame rate               : 15.873 fps
Maximum frame rate               : 24.390 fps
Resolution                       : 24 bits
Colorimetry                      : 4:2:0
Scan type                        : Progressive
Bits/(Pixel*Frame)               : 0.137
Stream size                      : 1.58 GiB (85%)
Writing library                  : x264 core 112


Audio
ID                               : 2
Format                           : AAC
Format/Info                      : Advanced Audio Codec
Format version                   : Version 4
Format profile                   : LC
Format settings, SBR             : No
Codec ID                         : 40
Duration                         : 1h 41mn
Bit rate mode                    : Variable
Bit rate                         : 384 Kbps
Maximum bit rate                 : 555 Kbps
Channel(s)                       : 6 channels
Channel positions                : Front: L C R, Rear: L R, LFE
Sampling rate                    : 48.0 KHz
Resolution                       : 16 bits
Stream size                      : 279 MiB (15%)
Language                         : English